<svg width="46" height="46" viewBox="0 0 46 46" fill="none" xmlns="http://www.w3.org/2000/svg">
<path fill-rule="evenodd" clip-rule="evenodd" d="M13.5002 0.282277C9.75608 0.451212 6.51087 1.36661 3.89044 3.97598C1.26085 6.59906 0.356825 9.85712 0.187469 13.5623C0.0821937 15.8749 -0.533403 33.3461 1.2517 37.9279C2.45549 41.019 4.82641 43.3957 7.94576 44.6033C9.4013 45.1695 11.0629 45.5527 13.5002 45.6646C33.8801 46.5869 41.4347 46.0848 44.6204 37.9279C45.1857 36.476 45.5748 34.8159 45.6823 32.3846C46.6138 11.9524 45.5313 7.52364 41.9794 3.97598C39.1622 1.1657 35.8483 -0.747318 13.5002 0.282277ZM13.6878 41.5554C11.4565 41.4549 10.2458 41.0831 9.43794 40.7704C7.40567 39.9805 5.87919 38.4603 5.0942 36.4399C3.73478 32.9584 4.18565 16.4232 4.30695 13.7476C4.42595 11.1268 4.9569 8.73158 6.80608 6.88243C9.09466 4.59949 12.0515 3.48065 32.1842 4.38926C34.8115 4.50796 37.2123 5.03782 39.066 6.88243C41.3546 9.16534 42.4897 12.1449 41.5652 32.2004C41.4645 34.4262 41.0914 35.634 40.7779 36.4399C38.7067 41.7477 33.9418 42.4845 13.6878 41.5554ZM32.4062 10.7861C32.4062 12.2974 33.6352 13.5264 35.1526 13.5264C36.6699 13.5264 37.9011 12.2974 37.9011 10.7861C37.9011 9.27485 36.6699 8.04702 35.1526 8.04702C33.6352 8.04702 32.4062 9.27485 32.4062 10.7861ZM11.1841 22.9723C11.1841 29.4467 16.4456 34.6958 22.9361 34.6958C29.4265 34.6958 34.688 29.4467 34.688 22.9723C34.688 16.498 29.4265 11.2522 22.9361 11.2522C16.4456 11.2522 11.1841 16.498 11.1841 22.9723ZM15.3082 22.9723C15.3082 18.7718 18.7228 15.3637 22.9361 15.3637C27.1493 15.3637 30.5639 18.7718 30.5639 22.9723C30.5639 27.1752 27.1493 30.5843 22.9361 30.5843C18.7228 30.5843 15.3082 27.1752 15.3082 22.9723Z" fill="#C2E1DB"/>
</svg>
