<svg width="53" height="44" viewBox="0 0 53 44" fill="none" xmlns="http://www.w3.org/2000/svg">
<path d="M16.6488 43.0246C10.5177 43.0246 4.80769 41.2271 0 38.1351C2.84342 38.4804 5.72703 38.2614 8.48566 37.4905C11.2443 36.7196 13.8237 35.412 16.0762 33.6426C13.8091 33.6011 11.6119 32.8508 9.79289 31.497C7.97391 30.1432 6.62443 28.2539 5.93381 26.0942C6.59794 26.2241 7.27891 26.2915 7.97431 26.2915C8.96569 26.2915 9.92819 26.1567 10.845 25.9161C8.38731 25.4184 6.1772 24.0865 4.58892 22.1461C3.00064 20.2057 2.1318 17.776 2.12953 15.2685V15.1265C3.63527 15.9653 5.32027 16.4307 7.04309 16.4836C5.55441 15.4918 4.33419 14.147 3.49116 12.5693C2.64813 10.9916 2.20846 9.22977 2.21134 7.44093C2.21134 5.45818 2.75275 3.58611 3.68397 1.98355C6.41095 5.33876 9.81323 8.08279 13.6698 10.0374C17.5264 11.992 21.751 13.1135 26.0693 13.329C25.5283 11.0005 25.77 8.55856 26.757 6.38129C27.7441 4.20403 29.4214 2.4129 31.5292 1.28525C33.6371 0.157598 36.058 -0.243675 38.4169 0.143563C40.7759 0.530801 42.9414 1.68495 44.5782 3.4273C47.0093 2.94609 49.3411 2.05598 51.4745 0.794861C50.6629 3.30939 48.9677 5.44474 46.7029 6.80567C48.8551 6.54872 50.9572 5.97294 52.9399 5.09724C51.4778 7.27537 49.6435 9.17892 47.521 10.7206C47.5403 11.1851 47.5547 11.6543 47.5547 12.1235C47.5523 26.4696 36.6255 43.027 16.6488 43.0246Z" fill="#C1E1DB"/>
</svg>
